<svg width="307" height="291" viewBox="0 0 307 291" fill="none" xmlns="http://www.w3.org/2000/svg">
<path d="M137.234 73.0242L144.095 105.067L131.968 111.4L117.252 83.4587L137.234 73.0242Z" fill="#A9AFC4"/>
<path d="M113.139 81.5778L103.632 86.5424C102.661 87.0514 101.6 87.365 100.507 87.4652C99.4149 87.5654 98.3134 87.4502 97.2657 87.1263C96.2181 86.8024 95.2448 86.276 94.4016 85.5773C93.5583 84.8787 92.8616 84.0213 92.3513 83.0544L89.5131 77.6654C88.4898 75.7137 88.2849 73.4378 88.9434 71.336C89.6018 69.2343 91.07 67.478 93.0263 66.452L102.533 61.4875L113.139 81.5778ZM95.1177 70.3753C94.2076 70.8528 93.5247 71.6698 93.2183 72.6476C92.912 73.6254 93.0072 74.6842 93.4832 75.5922L96.3213 80.9812C96.7993 81.8889 97.6198 82.5703 98.6023 82.8755C99.5849 83.1807 100.649 83.0848 101.56 82.6088L107.117 79.7071L100.674 67.4736L95.1177 70.3753Z" fill="#5E6175"/>
<path d="M110.128 80.6424L102.596 84.5756C101.161 85.3251 99.4854 85.4762 97.9382 84.9955C96.391 84.5149 95.099 83.4419 94.3462 82.0127L91.5081 76.6236C90.7554 75.1944 90.6037 73.5259 91.0864 71.9853C91.5691 70.4446 92.6466 69.158 94.0819 68.4085L101.614 64.4754L110.128 80.6424Z" fill="#5E6175"/>
<path d="M123.565 47.0694L103.254 57.6758C102.167 58.243 101.352 59.2166 100.987 60.3823C100.622 61.5481 100.736 62.8106 101.306 63.8921L110.683 81.6982C111.254 82.7782 112.232 83.5889 113.402 83.9524C114.573 84.3159 115.84 84.2027 116.926 83.6375L137.237 73.0311C156.96 62.7334 179.45 58.9188 201.484 62.1345L169.098 0.639432C159.226 20.5166 143.286 36.7702 123.565 47.0694Z" fill="#DCD154"/>
<path d="M123.565 47.0692L137.238 73.0309L116.926 83.6374C115.84 84.2025 114.573 84.3157 113.403 83.9522C112.232 83.5887 111.255 82.7781 110.684 81.698L101.303 63.8854C100.733 62.8039 100.618 61.5414 100.984 60.3756C101.349 59.2099 102.164 58.2363 103.25 57.6691L123.565 47.0692Z" fill="#F5F5F5"/>
<path d="M143.341 290.498C171.26 290.498 193.894 267.96 193.894 240.159C193.894 212.357 171.26 189.82 143.341 189.82C115.421 189.82 92.7876 212.357 92.7876 240.159C92.7876 267.96 115.421 290.498 143.341 290.498Z" fill="#F5F5F5"/>
<path d="M222.025 242.38H217.564V237.938H222.025V242.38ZM210.13 242.38H205.669V237.938H210.13V242.38ZM230.284 240.529L228.054 236.665C229.113 236.065 230.053 235.278 230.827 234.34L234.269 237.161C233.158 238.516 231.808 239.658 230.284 240.529ZM237.51 229.143L233.05 228.825C233.05 228.314 233.05 228.24 233.05 224.546H237.51C237.555 227.87 237.57 228.388 237.51 229.143ZM237.555 217.144H233.094V212.702H237.555V217.144Z" fill="#A9AFC4"/>
<path d="M81.0191 242.38H76.5586V237.938H81.0191V242.38ZM69.1243 242.38H64.6638V237.938H69.1243V242.38ZM56.4043 240.529C54.8701 239.661 53.5093 238.519 52.3898 237.161L55.8319 234.34C56.6055 235.278 57.5454 236.065 58.6048 236.665L56.4043 240.529ZM49.1708 229.143C49.1187 228.403 49.1336 228.226 49.1336 224.546H53.5941C53.5941 228.248 53.5941 228.322 53.5941 228.825L49.1708 229.143ZM53.5941 217.144H49.1336V212.702H53.5941V217.144Z" fill="#A9AFC4"/>
<path d="M143.341 265.906C139.276 265.902 135.379 264.292 132.505 261.43C129.631 258.569 128.015 254.688 128.011 250.641H137.616C137.616 251.768 137.952 252.87 138.581 253.808C139.21 254.745 140.104 255.476 141.15 255.907C142.196 256.339 143.347 256.452 144.457 256.232C145.568 256.012 146.588 255.469 147.388 254.672C148.189 253.874 148.734 252.859 148.955 251.753C149.176 250.647 149.062 249.501 148.629 248.46C148.196 247.418 147.462 246.528 146.521 245.902C145.579 245.275 144.473 244.941 143.341 244.941C140.307 244.941 137.342 244.045 134.82 242.367C132.298 240.689 130.332 238.304 129.171 235.513C128.01 232.723 127.707 229.652 128.298 226.69C128.89 223.727 130.351 221.006 132.496 218.87C134.641 216.734 137.373 215.28 140.348 214.69C143.324 214.101 146.407 214.404 149.21 215.559C152.012 216.715 154.407 218.673 156.093 221.184C157.778 223.696 158.677 226.648 158.677 229.669H149.065C149.065 228.542 148.729 227.439 148.1 226.502C147.471 225.565 146.577 224.834 145.531 224.403C144.485 223.971 143.334 223.858 142.224 224.078C141.113 224.298 140.093 224.841 139.293 225.638C138.492 226.436 137.947 227.451 137.726 228.557C137.505 229.663 137.619 230.809 138.052 231.85C138.485 232.892 139.219 233.782 140.16 234.408C141.102 235.035 142.208 235.369 143.341 235.369C145.383 235.324 147.413 235.686 149.313 236.433C151.212 237.18 152.943 238.298 154.403 239.72C155.863 241.142 157.023 242.841 157.815 244.715C158.607 246.59 159.015 248.603 159.015 250.637C159.015 252.671 158.607 254.685 157.815 256.559C157.023 258.434 155.863 260.132 154.403 261.554C152.943 262.977 151.212 264.094 149.313 264.841C147.413 265.589 145.383 265.95 143.341 265.906Z" fill="#DCD154"/>
<path d="M148.143 209.645H138.538V219.187H148.143V209.645Z" fill="#DCD154"/>
<path d="M148.143 261.124H138.538V270.666H148.143V261.124Z" fill="#DCD154"/>
<path d="M292.986 88.765L282.943 98.7612L286.097 101.903L296.139 91.9063L292.986 88.765Z" fill="#4E004B"/>
<path d="M275.031 78.7632H270.57V92.9025H275.031V78.7632Z" fill="#4E004B"/>
<path d="M306.537 108.893H292.338V113.334H306.537V108.893Z" fill="#4E004B"/>
<path d="M235.325 201.538C263.244 201.538 285.878 179.001 285.878 151.2C285.878 123.398 263.244 100.861 235.325 100.861C207.405 100.861 184.772 123.398 184.772 151.2C184.772 179.001 207.405 201.538 235.325 201.538Z" fill="#F5F5F5"/>
<path d="M51.3639 201.538C79.2835 201.538 101.917 179.001 101.917 151.2C101.917 123.398 79.2835 100.861 51.3639 100.861C23.4442 100.861 0.810913 123.398 0.810913 151.2C0.810913 179.001 23.4442 201.538 51.3639 201.538Z" fill="#F5F5F5"/>
<path d="M258.2 163.281V177.013C251.898 182.594 243.758 185.677 235.325 185.677C226.891 185.677 218.751 182.594 212.449 177.013V163.281C212.449 161.287 212.844 159.313 213.61 157.471C214.377 155.63 215.5 153.957 216.916 152.547C218.332 151.138 220.013 150.02 221.863 149.258C223.713 148.496 225.695 148.104 227.697 148.105H242.945C244.947 148.104 246.93 148.496 248.78 149.258C250.631 150.02 252.312 151.138 253.729 152.547C255.145 153.956 256.269 155.629 257.036 157.471C257.804 159.313 258.199 161.287 258.2 163.281Z" fill="#C6B92D"/>
<path d="M235.317 148.098C232.214 148.098 229.237 146.87 227.043 144.685C224.849 142.5 223.616 139.536 223.616 136.446V133.736C223.693 130.696 224.96 127.806 227.146 125.682C229.333 123.559 232.267 122.371 235.321 122.371C238.375 122.371 241.309 123.559 243.495 125.682C245.682 127.806 246.949 130.696 247.026 133.736V136.446C247.024 139.537 245.79 142.5 243.594 144.685C241.398 146.87 238.421 148.098 235.317 148.098Z" fill="#C6B92D"/>
<path d="M74.2391 163.281V177.013C67.9374 182.594 59.7974 185.677 51.3639 185.677C42.9304 185.677 34.7903 182.594 28.4886 177.013V163.281C28.4896 161.287 28.885 159.313 29.6522 157.471C30.4193 155.629 31.5433 153.956 32.9598 152.547C34.3764 151.138 36.0578 150.02 37.9082 149.258C39.7585 148.496 41.7414 148.104 43.7437 148.105H58.9914C60.9934 148.104 62.976 148.496 64.8259 149.258C66.6758 150.02 68.3567 151.138 69.7727 152.547C71.1887 153.957 72.3119 155.63 73.0783 157.471C73.8446 159.313 74.2391 161.287 74.2391 163.281Z" fill="#C6B92D"/>
<path d="M51.3639 148.098C48.2604 148.098 45.2841 146.87 43.0897 144.685C40.8952 142.5 39.6624 139.536 39.6624 136.446V133.736C39.7393 130.696 41.0063 127.806 43.1931 125.682C45.3799 123.559 48.3133 122.371 51.3676 122.371C54.4219 122.371 57.3553 123.559 59.5421 125.682C61.7289 127.806 62.9959 130.696 63.0728 133.736V136.446C63.0709 139.537 61.8364 142.5 59.6407 144.685C57.4451 146.87 54.468 148.098 51.3639 148.098Z" fill="#C6B92D"/>
</svg>
