<svg width="20" height="20" viewBox="0 0 20 20" fill="none" xmlns="http://www.w3.org/2000/svg">
<path d="M14.585 12.835H13.6633L13.3367 12.52C14.0658 11.673 14.5987 10.6752 14.8972 9.59823C15.1957 8.52121 15.2524 7.39153 15.0633 6.29001C14.515 3.04668 11.8083 0.45668 8.54168 0.0600129C7.39323 -0.085277 6.22677 0.0340798 5.13154 0.40895C4.03632 0.78382 3.04136 1.40427 2.22282 2.22282C1.40427 3.04136 0.78382 4.03632 0.40895 5.13154C0.0340798 6.22677 -0.085277 7.39323 0.0600129 8.54168C0.45668 11.8083 3.04668 14.515 6.29001 15.0633C7.39152 15.2524 8.52121 15.1957 9.59823 14.8972C10.6752 14.5987 11.673 14.0658 12.52 13.3367L12.835 13.6633V14.585L17.7933 19.5433C18.2717 20.0217 19.0533 20.0217 19.5317 19.5433C20.01 19.065 20.01 18.2833 19.5317 17.805L14.585 12.835ZM7.58501 12.835C4.68001 12.835 2.33501 10.49 2.33501 7.58501C2.33501 4.68001 4.68001 2.33501 7.58501 2.33501C10.49 2.33501 12.835 4.68001 12.835 7.58501C12.835 10.49 10.49 12.835 7.58501 12.835Z" fill="#C6B92D"/>
</svg>
