<svg width="60" height="60" viewBox="0 0 60 60" fill="none" xmlns="http://www.w3.org/2000/svg">
<g clip-path="url(#clip0_62_2649)">
<path d="M58.125 46.875H56.25V16.875C56.2802 15.4193 55.7333 14.0107 54.7286 12.9568C53.7239 11.9029 52.343 11.2893 50.8875 11.25H37.5C37.0027 11.25 36.5258 11.4475 36.1742 11.7992C35.8225 12.1508 35.625 12.6277 35.625 13.125C35.625 13.6223 35.8225 14.0992 36.1742 14.4508C36.5258 14.8025 37.0027 15 37.5 15H50.8875C51.3486 15.0383 51.7761 15.2564 52.0778 15.6072C52.3795 15.958 52.5311 16.4134 52.5 16.875V46.875H7.5V16.875C7.46888 16.4134 7.62052 15.958 7.92221 15.6072C8.22389 15.2564 8.65141 15.0383 9.1125 15H15C15.4973 15 15.9742 14.8025 16.3258 14.4508C16.6775 14.0992 16.875 13.6223 16.875 13.125C16.875 12.6277 16.6775 12.1508 16.3258 11.7992C15.9742 11.4475 15.4973 11.25 15 11.25H9.1125C7.65697 11.2893 6.27611 11.9029 5.2714 12.9568C4.26669 14.0107 3.71975 15.4193 3.75 16.875V46.875H1.875C1.37772 46.875 0.900806 47.0725 0.549175 47.4242C0.197544 47.7758 0 48.2527 0 48.75L0 52.5C0 54.4891 0.790176 56.3968 2.1967 57.8033C3.60322 59.2098 5.51088 60 7.5 60H52.5C54.4891 60 56.3968 59.2098 57.8033 57.8033C59.2098 56.3968 60 54.4891 60 52.5V48.75C60 48.2527 59.8025 47.7758 59.4508 47.4242C59.0992 47.0725 58.6223 46.875 58.125 46.875ZM56.25 52.5C56.25 53.4946 55.8549 54.4484 55.1516 55.1516C54.4484 55.8549 53.4946 56.25 52.5 56.25H7.5C6.50544 56.25 5.55161 55.8549 4.84835 55.1516C4.14509 54.4484 3.75 53.4946 3.75 52.5V50.625H56.25V52.5Z" fill="#9F9316"/>
<path d="M45 37.5001H42.7125L41.7563 33.7501C42.2535 33.6829 42.7038 33.421 43.0079 33.0219C43.3121 32.6228 43.4453 32.1192 43.3781 31.6219C43.311 31.1246 43.0491 30.6744 42.65 30.3702C42.2509 30.0661 41.7473 29.9329 41.25 30.0001H40.575C38.316 25.251 36.7622 20.1978 35.9625 15.0001H37.5C37.9973 15.0001 38.4742 14.8025 38.8258 14.4509C39.1775 14.0993 39.375 13.6223 39.375 13.1251C39.375 12.6278 39.1775 12.1509 38.8258 11.7992C38.4742 11.4476 37.9973 11.2501 37.5 11.2501H36.45C37.1257 10.1113 37.4879 8.814 37.4997 7.48995C37.5115 6.16589 37.1726 4.8623 36.5174 3.71166C35.8622 2.56101 34.9141 1.60434 33.7694 0.938872C32.6246 0.273401 31.3241 -0.0771484 30 -0.0771484C28.6759 -0.0771484 27.3754 0.273401 26.2306 0.938872C25.0859 1.60434 24.1378 2.56101 23.4826 3.71166C22.8274 4.8623 22.4885 6.16589 22.5003 7.48995C22.5121 8.814 22.8743 10.1113 23.55 11.2501H22.5C22.0027 11.2501 21.5258 11.4476 21.1742 11.7992C20.8225 12.1509 20.625 12.6278 20.625 13.1251C20.625 13.6223 20.8225 14.0993 21.1742 14.4509C21.5258 14.8025 22.0027 15.0001 22.5 15.0001H24.0375C23.2397 20.1982 21.6857 25.2517 19.425 30.0001H18.75C18.2527 29.9329 17.7491 30.0661 17.35 30.3702C16.9509 30.6744 16.689 31.1246 16.6219 31.6219C16.5547 32.1192 16.6879 32.6228 16.9921 33.0219C17.2962 33.421 17.7465 33.6829 18.2437 33.7501L17.2875 37.5001H15C14.5027 37.5001 14.0258 37.6976 13.6742 38.0492C13.3225 38.4009 13.125 38.8778 13.125 39.3751C13.125 39.8723 13.3225 40.3493 13.6742 40.7009C14.0258 41.0525 14.5027 41.2501 15 41.2501H45C45.4973 41.2501 45.9742 41.0525 46.3258 40.7009C46.6775 40.3493 46.875 39.8723 46.875 39.3751C46.875 38.8778 46.6775 38.4009 46.3258 38.0492C45.9742 37.6976 45.4973 37.5001 45 37.5001ZM30 3.75006C30.7417 3.75006 31.4667 3.96999 32.0834 4.38205C32.7001 4.7941 33.1807 5.37977 33.4645 6.06499C33.7484 6.75022 33.8226 7.50422 33.6779 8.23165C33.5333 8.95907 33.1761 9.62726 32.6516 10.1517C32.1272 10.6762 31.459 11.0333 30.7316 11.178C30.0042 11.3227 29.2502 11.2484 28.5649 10.9646C27.8797 10.6808 27.294 10.2001 26.882 9.58345C26.4699 8.96676 26.25 8.24174 26.25 7.50006C26.25 6.5055 26.6451 5.55167 27.3484 4.84841C28.0516 4.14514 29.0054 3.75006 30 3.75006ZM27.8438 15.0001H32.1562C32.9099 20.1675 34.3475 25.2117 36.4313 30.0001H23.5687C25.6569 25.2133 27.0947 20.1685 27.8438 15.0001ZM21.15 37.5001L22.0875 33.7501H37.9125L38.85 37.5001H21.15Z" fill="#6A0F65"/>
</g>
<defs>
<clipPath id="clip0_62_2649">
<rect width="60" height="60" fill="white"/>
</clipPath>
</defs>
</svg>
